<svg id="Capa_1" data-name="Capa 1" xmlns="http://www.w3.org/2000/svg" viewBox="0 0 513.58 97.88"><defs><style>.cls-1{fill:#275d8c;}</style></defs><title>mruvalcaba</title><path class="cls-1" d="M115,282.88V185h21l32,39.56L199.88,185H221v97.88H200.54V217.22L168,257.46l-32.66-40.11v65.53Z" transform="translate(-115.01 -185)"/><path class="cls-1" d="M225.54,282.88V240.07a16.56,16.56,0,0,1,3.09-10q3.1-4.23,7.42-4.23h23v15.06H236.55v42Z" transform="translate(-115.01 -185)"/><path class="cls-1" d="M275.36,282.88q-4.32,0-7.38-4.23a16.68,16.68,0,0,1-3.06-10V225.8h11v42h20.31v-42h11v42.81a16.68,16.68,0,0,1-3.06,10q-3.06,4.23-7.38,4.23Z" transform="translate(-115.01 -185)"/><path class="cls-1" d="M335.62,282.88l-23-57.08h12.68l15,37.89,15.05-37.89h12.67l-23,57.08Z" transform="translate(-115.01 -185)"/><path class="cls-1" d="M379.9,282.88q-4.32,0-7.38-4.23a16.68,16.68,0,0,1-3.06-10V246.76h31.32v-5.9H369.46V225.8h31.9q4.32,0,7.38,4.23a16.68,16.68,0,0,1,3.06,10v42.81Zm3-15.06h17.93V260h-20.3v7.87Z" transform="translate(-115.01 -185)"/><path class="cls-1" d="M427.92,282.88q-4.25,0-7.34-4.23a16.57,16.57,0,0,1-3.1-10V207h11.09v60.82H437v15.06Z" transform="translate(-115.01 -185)"/><path class="cls-1" d="M452.12,282.88q-4.26,0-7.35-4.23a16.56,16.56,0,0,1-3.09-10V240.07a16.56,16.56,0,0,1,3.09-10q3.09-4.23,7.35-4.23h31.82v15.06H452.69v27H484v15.06Z" transform="translate(-115.01 -185)"/><path class="cls-1" d="M501.51,282.88q-4.32,0-7.38-4.23a16.68,16.68,0,0,1-3.06-10V246.76h31.32v-5.9H491.07V225.8H523q4.32,0,7.38,4.23a16.68,16.68,0,0,1,3.06,10v42.81Zm2.95-15.06h17.93V260H502.08v7.87Z" transform="translate(-115.01 -185)"/><path class="cls-1" d="M539.09,282.88V207.1h11v18.7H571q4.32,0,7.38,4.23a16.68,16.68,0,0,1,3.06,10v28.54a16.68,16.68,0,0,1-3.06,10q-3.06,4.23-7.38,4.23Zm13.39-15.06h17.93v-27h-20.3v27Z" transform="translate(-115.01 -185)"/><path class="cls-1" d="M596.69,282.88q-4.32,0-7.38-4.23a16.68,16.68,0,0,1-3.06-10V246.76h31.32v-5.9H586.25V225.8h31.9q4.32,0,7.38,4.23a16.68,16.68,0,0,1,3.06,10v42.81Zm2.95-15.06h17.93V260h-20.3v7.87Z" transform="translate(-115.01 -185)"/></svg>