<?xml version="1.0" encoding="utf-8"?>
<!-- Generator: Adobe Illustrator 24.0.0, SVG Export Plug-In . SVG Version: 6.00 Build 0)  -->
<svg version="1.1" id="Layer_1" xmlns="http://www.w3.org/2000/svg" xmlns:xlink="http://www.w3.org/1999/xlink" x="0px" y="0px"
	 viewBox="0 0 1080 1080" style="enable-background:new 0 0 1080 1080;" xml:space="preserve">
<style type="text/css">
	.st0{fill:#FFFFFF;}
</style>
<path class="st0" d="M900.6,165.2c-30.4-32.3-65.2-59.9-103.3-82.2c-12.2-7.1-24.9-13.8-37.8-19.8c-21.2-10-43.2-18.4-66.1-25.4
	c-13.5-4.1-27.3-7.6-41.3-10.5c-35.7-7.6-73.1-11.6-111.3-11.6s-76.6,4-112.4,11.6c-13.9,2.9-27.5,6.4-40.8,10.5
	c-23.5,7.1-46.1,16-67.7,26.2c-12.8,6-25.1,12.7-37.1,19.8C134.4,171.7,40.7,337.3,40.7,540.1c0,303.7,210.4,524.2,500.3,524.2
	s498.4-220.4,498.4-524.2C1039.3,393.5,990.1,260.3,900.6,165.2L900.6,165.2z M540.9,61.1c30.7,0,60.3,2.6,88.7,7.8l-42.3,94.4
	l-19.6,43.6l-27.6,61.5L512.7,207l-19.6-43.6l-42.2-94.3C479.8,63.8,509.9,61.1,540.9,61.1L540.9,61.1z M417.1,76.6l41.5,92.6
	l18.9,42.3l44.1,98.3l18.5,41.5l18.5-41.4l44.2-98.6l18.9-42.3l41.6-92.8c32.5,8.4,63.1,20.1,91.7,35.1L714,203l-18.5,41.4
	l-83,185.2l-27,60.3c-5.3,12-15,21.1-27.3,25.8c-5.7,2.2-11.5,3.3-17.4,3.3c-5.1,0-10.2-0.8-14.9-2.5c-0.7-0.1-1.2-0.3-1.8-0.6
	l-3.3-1.3c-1.1-0.5-2.2-1-3.3-1.6c-9.8-4.7-18-12.9-22.7-23.5l-26.8-59.7L385,244.5l-18.5-41.4l-40.9-91.4
	C354.1,96.8,384.6,85.1,417.1,76.6L417.1,76.6z M724.2,263.2c13.8,10.1,26.6,21.6,38.6,34.4c55.9,59.9,86.6,146.1,86.6,242.5
	c0,196.7-126.8,334.2-308.5,334.2S230.7,736.8,230.7,540.1c0-97.8,30-181.6,86.8-242.5c12-12.8,25-24.3,38.8-34.4l107.6,240
	c7.7,17.1,20.4,30.3,35.6,38.6c2.4,1.3,4.9,2.6,7.4,3.7c1.4,0.6,2.7,1.1,4.1,1.7c1.8,0.7,3.6,1.2,5.4,1.8c7.9,2.6,16,3.8,24.3,3.8
	c10.1,0,20-1.8,29.6-5.5c20.7-7.8,37-23.3,46.1-43.6L724.2,263.2L724.2,263.2z M540.9,1019c-267.1,0-455-202.6-455-478.9
	c0-181.5,80.1-330.2,209.9-411.5l41.5,92.5c-94.7,65.2-151.9,179-151.9,319c0,221,145.5,379.5,355.5,379.5s353.7-158.5,353.7-379.5
	c0-139.9-57.4-253.7-151.6-319.1l41.6-92.9c129.8,81.2,209.4,230.1,209.4,411.9C994.1,816.4,808,1019,540.9,1019z"/>
</svg>
