<?xml version="1.0" encoding="utf-8"?>
<!-- Generator: Adobe Illustrator 24.0.0, SVG Export Plug-In . SVG Version: 6.00 Build 0)  -->
<svg version="1.1" id="Layer_1" xmlns="http://www.w3.org/2000/svg" xmlns:xlink="http://www.w3.org/1999/xlink" x="0px" y="0px"
	 viewBox="0 0 2673.1 402.5" style="enable-background:new 0 0 2673.1 402.5;" xml:space="preserve">
<style type="text/css">
	.st0{fill:#212121;}
</style>
<g>
	<path class="st0" d="M308.5,130.1h24.6L416.2,315l83.1-184.9h24.2l-95,212h-24.6L308.5,130.1L308.5,130.1z"/>
	<path class="st0" d="M735.1,271.7c-14,45.4-51.7,74.6-100.5,74.6c-60.6,0-104.3-46.6-104.3-110.3s43.7-110.3,105.2-110.3
		S739.3,172,739.3,232.7c0,3-0.4,7.6-0.8,11H554c3,49.2,35.6,81.8,80.6,81.8c35.6,0,64.9-21.2,76.3-53.8L735.1,271.7L735.1,271.7z
		 M554,228.5h162.8c-1.7-47.9-34.8-82.3-81.4-82.3S557,179.3,554,228.5L554,228.5z"/>
	<path class="st0" d="M893.7,137.7c0,6-4.6,11-10.6,11.4c-50.8,3.6-77.6,33.4-77.6,87v106H783v-106c0-66.2,35.3-105.4,98.4-109.8
		C888,125.8,893.7,131,893.7,137.7L893.7,137.7L893.7,137.7z"/>
	<path class="st0" d="M1015.4,346.4c-51.7,0-87.4-22-92-64.9h22.5c3.4,28.4,26.7,45.4,69.1,45.4c33.1,0,52.6-18.6,52.6-39.9
		c0-61.1-137.4-24.6-137.4-103.9c0-31.8,32.2-57.2,76.3-57.2c49.6,0,79.7,26.7,83.1,68.3h-22.5c-2.1-27.6-22-48.8-61.1-48.8
		c-29.3,0-53,17-53,37.8c0,61.1,137.4,23.3,137.4,104.3C1090.5,321.8,1058.7,346.4,1015.4,346.4L1015.4,346.4z"/>
	<path class="st0" d="M1160.5,41c10.2,0,16.5,7.2,16.5,17s-6.4,17-16.5,17s-16.5-7.6-16.5-17S1150.3,41,1160.5,41z M1160.5,130.1
		L1160.5,130.1c6.3,0,11.4,5.1,11.4,11.4v189.2c0,6.3-5.1,11.4-11.4,11.4l0,0c-6.3,0-11.4-5.1-11.4-11.4V141.5
		C1149,135.2,1154.1,130.1,1160.5,130.1z"/>
	<path class="st0" d="M1320.7,346.4c-51.7,0-87.4-22-92-64.9h22.5c3.4,28.4,26.7,45.4,69.1,45.4c33.1,0,52.6-18.6,52.6-39.9
		c0-61.1-137.4-24.6-137.4-103.9c0-31.8,32.2-57.2,76.3-57.2c49.6,0,79.7,26.7,83.1,68.3h-22.5c-2.1-27.6-22-48.8-61.1-48.8
		c-29.3,0-53,17-53,37.8c0,61.1,137.4,23.3,137.4,104.3C1395.8,321.8,1364,346.4,1320.7,346.4L1320.7,346.4z"/>
	<path class="st0" d="M1523.5,346.4c-61.1,0-91.2-33.5-91.2-89V91.5c0-6.3,5.1-11.4,11.4-11.4l0,0c6.3,0,11.4,5.1,11.4,11.4v38.6
		h56.8c6.3,0,11.4,5.1,11.4,11.4l0,0c0,6.3-5.1,11.4-11.4,11.4h-56.8v104.3c0,42.4,19.9,67,68.3,67V346.4z"/>
	<path class="st0" d="M1763.5,271.7c-14,45.4-51.7,74.6-100.5,74.6c-60.6,0-104.3-46.6-104.3-110.3s43.7-110.3,105.2-110.3
		s103.9,46.2,103.9,106.9c0,3-0.4,7.6-0.8,11h-184.5c3,49.2,35.6,81.8,80.6,81.8c35.6,0,64.9-21.2,76.3-53.8L1763.5,271.7
		L1763.5,271.7z M1582.4,228.5h162.8c-1.7-47.9-34.8-82.3-81.4-82.3S1585.4,179.3,1582.4,228.5L1582.4,228.5z"/>
	<path class="st0" d="M1979.8,342.1h-0.8c-6.1,0-11-4.9-11-11v-95c0-53-25.4-87.4-66.6-87.4s-67.4,33.5-67.4,87.4v95
		c0,6.1-4.9,11-11,11h-0.4c-6.1,0-11-4.9-11-11v-95c0-66.6,36-110.3,89.9-110.3c35.6,0,63.6,19.1,78,51.7
		c14.8-32.6,42.8-51.7,79.3-51.7c53,0,88.6,43.7,88.6,110.3v95c0,6.1-4.9,11-11,11l0,0c-6.1,0-11-4.9-11-11v-95
		c0-53-26.3-87.4-66.6-87.4s-67.8,33.5-67.8,87.4v95C1990.8,337.2,1985.9,342.1,1979.8,342.1L1979.8,342.1z"/>
	<path class="st0" d="M2377.2,295.9c-17.4,30.5-48.4,50.5-84.4,50.5c-57.2,0-101.8-47.9-101.8-110.3s44.4-110.5,104.8-110.2
		c58,0.2,104.2,48.6,104.2,106.6v98.2c0,6.3-5.1,11.4-11.4,11.4l0,0c-6.3,0-11.4-5.1-11.4-11.4L2377.2,295.9L2377.2,295.9z
		 M2213.9,236.1c0,49.2,34.8,87.4,81.4,87.4s81.8-38.2,81.8-87.4c0-46.2-28.8-87.4-81.8-87.4S2213.9,189.9,2213.9,236.1z"/>
	<path class="st0" d="M2529,346.4c-51.7,0-87.4-22-92-64.9h22.5c3.4,28.4,26.7,45.4,69.1,45.4c33.1,0,52.6-18.6,52.6-39.9
		c0-61.1-137.4-24.6-137.4-103.9c0-31.8,32.2-57.2,76.3-57.2c49.6,0,79.7,26.7,83.1,68.3h-22.5c-2.1-27.6-22-48.8-61.1-48.8
		c-29.3,0-53,17-53,37.8c0,61.1,137.4,23.3,137.4,104.3C2604.1,321.8,2572.3,346.4,2529,346.4L2529,346.4z"/>
</g>
<path class="st0" d="M267,154.5c-7-7.4-15-13.8-23.8-18.9c-2.8-1.6-5.7-3.2-8.7-4.6c-4.9-2.3-10-4.2-15.2-5.8
	c-3.1-0.9-6.3-1.8-9.5-2.4c-8.2-1.8-16.8-2.6-25.6-2.6s-17.6,0.9-25.9,2.7c-3.2,0.7-6.3,1.5-9.4,2.4c-5.4,1.6-10.6,3.7-15.6,6
	c-3,1.4-5.8,2.9-8.6,4.6C90.6,156,69,194.1,69,240.8c0,69.9,48.4,120.7,115.2,120.7s114.7-50.8,114.7-120.7
	C298.9,207,287.6,176.4,267,154.5L267,154.5z M184.2,130.5c7,0,13.9,0.6,20.4,1.8l-9.7,21.8l-4.5,10l-6.4,14.2l-6.3-14.1l-4.5-10
	l-9.7-21.7C170.1,131.1,177,130.5,184.2,130.5L184.2,130.5z M155.7,134l9.6,21.3l4.4,9.7l10.2,22.6l4.3,9.6l4.3-9.5l10.2-22.7
	l4.4-9.7l9.6-21.4c7.5,1.9,14.5,4.6,21.1,8.1l-9.5,21.1l-4.3,9.5l-19.1,42.6l-6.2,13.9c-1.2,2.8-3.5,4.9-6.3,5.9
	c-1.3,0.5-2.6,0.8-4,0.8c-1.2,0-2.4-0.2-3.4-0.6c-0.2,0-0.3-0.1-0.4-0.1l-0.8-0.3c-0.3-0.1-0.5-0.2-0.8-0.4c-2.3-1.1-4.2-3-5.2-5.4
	l-6.2-13.8l-19.1-42.6l-4.3-9.5l-9.4-21C141.3,138.7,148.3,136,155.7,134L155.7,134z M226.4,177c3.2,2.3,6.1,5,8.9,7.9
	c12.9,13.8,20,33.6,20,55.8c0,45.3-29.2,77-71,77s-71.4-31.7-71.4-77c0-22.5,6.9-41.8,20-55.8c2.8-3,5.8-5.6,8.9-7.9l24.8,55.2
	c1.8,3.9,4.7,7,8.2,8.9c0.6,0.3,1.1,0.6,1.7,0.8c0.3,0.1,0.6,0.3,0.9,0.4c0.4,0.2,0.8,0.3,1.2,0.4c1.8,0.6,3.7,0.9,5.6,0.9
	c2.3,0,4.6-0.4,6.8-1.3c4.8-1.8,8.5-5.4,10.6-10L226.4,177L226.4,177z M184.2,351c-61.5,0-104.8-46.6-104.8-110.2
	c0-41.8,18.4-76,48.3-94.7l9.6,21.3c-21.8,15-35,41.2-35,73.4c0,50.9,33.5,87.4,81.8,87.4s81.4-36.5,81.4-87.4
	c0-32.2-13.2-58.4-34.9-73.4l9.6-21.4c29.9,18.7,48.2,53,48.2,94.8C288.5,304.4,245.7,351.1,184.2,351L184.2,351z"/>
</svg>
