<?xml version="1.0" encoding="UTF-8"?><svg id="Layer_1" xmlns="http://www.w3.org/2000/svg" viewBox="0 0 1080 1080"><defs><style>.cls-1{fill:#fff;}</style></defs><g><path class="cls-1" d="M282.98,522.21h6.15l20.78,46.22,20.78-46.22h6.04l-23.75,53.01h-6.15l-23.85-53.01Z"/><path class="cls-1" d="M389.64,557.62c-3.5,11.34-12.93,18.66-25.13,18.66-15.16,0-26.08-11.66-26.08-27.57s10.92-27.57,26.29-27.57,25.97,11.56,25.97,26.72c0,.74-.11,1.91-.21,2.76h-46.12c.74,12.3,8.91,20.46,20.14,20.46,8.91,0,16.22-5.3,19.08-13.46h6.04Zm-45.27-10.81h40.71c-.42-11.98-8.69-20.57-20.36-20.57s-19.61,8.27-20.36,20.57Z"/><path class="cls-1" d="M429.29,524.12c0,1.5-1.15,2.75-2.64,2.85-12.71,.89-19.41,8.34-19.41,21.75v26.5h-5.62v-26.5c0-16.55,8.82-26.35,24.59-27.46,1.66-.12,3.08,1.19,3.08,2.86h0Z"/><path class="cls-1" d="M459.72,576.28c-12.93,0-21.84-5.51-23.01-16.22h5.62c.85,7.1,6.68,11.34,17.28,11.34,8.27,0,13.15-4.66,13.15-9.97,0-15.27-34.35-6.15-34.35-25.97,0-7.95,8.06-14.31,19.08-14.31,12.4,0,19.93,6.68,20.78,17.07h-5.62c-.53-6.89-5.51-12.19-15.27-12.19-7.32,0-13.25,4.24-13.25,9.44,0,15.27,34.35,5.83,34.35,26.08,0,8.59-7.95,14.74-18.77,14.74Z"/><path class="cls-1" d="M495.98,499.95c2.54,0,4.13,1.8,4.13,4.24s-1.59,4.24-4.13,4.24-4.13-1.91-4.13-4.24,1.59-4.24,4.13-4.24Zm0,22.26h0c1.58,0,2.86,1.28,2.86,2.86v47.29c0,1.58-1.28,2.86-2.86,2.86h0c-1.58,0-2.86-1.28-2.86-2.86v-47.29c0-1.58,1.28-2.86,2.86-2.86Z"/><path class="cls-1" d="M536.05,576.28c-12.93,0-21.84-5.51-23.01-16.22h5.62c.85,7.1,6.68,11.34,17.28,11.34,8.27,0,13.15-4.66,13.15-9.97,0-15.27-34.35-6.15-34.35-25.97,0-7.95,8.06-14.31,19.08-14.31,12.4,0,19.93,6.68,20.78,17.07h-5.62c-.53-6.89-5.51-12.19-15.27-12.19-7.32,0-13.25,4.24-13.25,9.44,0,15.27,34.35,5.83,34.35,26.08,0,8.59-7.95,14.74-18.77,14.74Z"/><path class="cls-1" d="M586.73,576.28c-15.27,0-22.79-8.38-22.79-22.26v-41.45c0-1.58,1.28-2.86,2.86-2.86h0c1.58,0,2.86,1.28,2.86,2.86v9.65s14.21,0,14.21,0c1.58,0,2.86,1.28,2.86,2.86h0c0,1.58-1.28,2.86-2.86,2.86h-14.21s0,26.08,0,26.08c0,10.6,4.98,16.75,17.07,16.75v5.51Z"/><path class="cls-1" d="M646.74,557.62c-3.5,11.34-12.93,18.66-25.13,18.66-15.16,0-26.08-11.66-26.08-27.57s10.92-27.57,26.29-27.57,25.97,11.56,25.97,26.72c0,.74-.11,1.91-.21,2.76h-46.12c.74,12.3,8.91,20.46,20.14,20.46,8.91,0,16.22-5.3,19.08-13.46h6.04Zm-45.27-10.81h40.71c-.42-11.98-8.69-20.57-20.36-20.57s-19.61,8.27-20.36,20.57Z"/><path class="cls-1" d="M700.81,575.22h-.21c-1.52,0-2.76-1.23-2.76-2.76v-23.75c0-13.25-6.36-21.84-16.65-21.84s-16.86,8.38-16.86,21.84v23.75c0,1.52-1.23,2.76-2.76,2.76h-.11c-1.52,0-2.76-1.23-2.76-2.76v-23.75c0-16.64,9.01-27.57,22.48-27.57,8.91,0,15.9,4.77,19.51,12.93,3.71-8.16,10.71-12.93,19.83-12.93,13.25,0,22.16,10.92,22.16,27.57v23.75c0,1.52-1.23,2.76-2.76,2.76h0c-1.52,0-2.76-1.23-2.76-2.76v-23.75c0-13.25-6.57-21.84-16.64-21.84s-16.96,8.38-16.96,21.84v23.75c0,1.52-1.23,2.76-2.76,2.76Z"/><path class="cls-1" d="M800.16,563.67c-4.35,7.63-12.09,12.62-21.1,12.62-14.31,0-25.44-11.98-25.44-27.57s11.09-27.63,26.2-27.56c14.49,.06,26.06,12.16,26.06,26.65v24.56c0,1.58-1.28,2.86-2.86,2.86h0c-1.58,0-2.86-1.28-2.86-2.86v-8.69Zm-40.82-14.95c0,12.3,8.69,21.84,20.36,21.84s20.46-9.54,20.46-21.84c0-11.56-7.21-21.84-20.46-21.84s-20.36,10.28-20.36,21.84Z"/><path class="cls-1" d="M838.12,576.28c-12.93,0-21.84-5.51-23.01-16.22h5.62c.85,7.1,6.68,11.34,17.28,11.34,8.27,0,13.15-4.66,13.15-9.97,0-15.27-34.35-6.15-34.35-25.97,0-7.95,8.06-14.31,19.08-14.31,12.4,0,19.93,6.68,20.78,17.07h-5.62c-.53-6.89-5.51-12.19-15.27-12.19-7.32,0-13.25,4.24-13.25,9.44,0,15.27,34.35,5.83,34.35,26.08,0,8.59-7.95,14.74-18.77,14.74Z"/></g><path class="cls-1" d="M272.62,528.31c-1.75-1.86-3.75-3.45-5.94-4.73-.7-.41-1.43-.79-2.17-1.14-1.22-.57-2.49-1.06-3.8-1.46-.77-.23-1.57-.44-2.38-.61-2.06-.44-4.21-.66-6.41-.66s-4.41,.23-6.47,.67c-.8,.17-1.58,.37-2.35,.61-1.35,.41-2.66,.92-3.9,1.51-.74,.35-1.45,.73-2.14,1.14-8.55,5.05-13.94,14.58-13.94,26.25,0,17.48,12.11,30.17,28.79,30.17s28.68-12.69,28.68-30.17c0-8.44-2.83-16.1-7.98-21.57Zm-20.7-6c1.76,0,3.47,.15,5.1,.45l-2.43,5.44-1.13,2.51-1.59,3.54-1.58-3.53-1.13-2.51-2.43-5.43c1.66-.31,3.39-.46,5.18-.46Zm-7.13,.89l2.39,5.33,1.09,2.43,2.54,5.66,1.07,2.39,1.07-2.38,2.55-5.68,1.09-2.43,2.4-5.34c1.87,.48,3.63,1.16,5.28,2.02l-2.37,5.28-1.07,2.38-4.78,10.66-1.56,3.47c-.31,.69-.87,1.22-1.57,1.48-.33,.12-.66,.19-1,.19-.29,0-.59-.05-.86-.14-.04,0-.07-.02-.1-.03l-.19-.08c-.07-.03-.13-.06-.19-.09-.57-.27-1.04-.74-1.31-1.35l-1.54-3.44-4.77-10.66-1.07-2.38-2.36-5.26c1.65-.86,3.4-1.54,5.27-2.02Zm17.67,10.74c.79,.58,1.53,1.24,2.22,1.98,3.22,3.45,4.99,8.41,4.99,13.96,0,11.32-7.3,19.24-17.75,19.24s-17.86-7.92-17.86-19.24c0-5.63,1.73-10.46,4.99-13.96,.69-.74,1.44-1.4,2.23-1.98l6.19,13.81c.44,.98,1.17,1.74,2.05,2.22,.14,.08,.28,.15,.42,.21,.08,.03,.16,.07,.23,.1,.1,.04,.21,.07,.31,.1,.46,.15,.92,.22,1.4,.22,.58,0,1.15-.1,1.71-.32,1.19-.45,2.13-1.34,2.66-2.51l6.2-13.85Zm-10.55,43.5c-15.37,0-26.19-11.66-26.19-27.56,0-10.45,4.61-19,12.08-23.68l2.39,5.33c-5.45,3.76-8.74,10.31-8.74,18.36,0,12.72,8.37,21.84,20.46,21.84s20.36-9.12,20.36-21.84c0-8.05-3.3-14.6-8.72-18.36l2.4-5.34c7.47,4.67,12.05,13.24,12.05,23.71,0,15.9-10.71,27.56-26.08,27.56Z"/></svg>