<?xml version="1.0" encoding="UTF-8"?><svg id="Layer_1" xmlns="http://www.w3.org/2000/svg" viewBox="0 0 1080 1080"><defs><style>.cls-1{fill:#fff;}</style></defs><path class="cls-1" d="M660.22,415.07c-10.14-10.78-21.72-19.98-34.42-27.41-4.07-2.38-8.29-4.6-12.59-6.6-7.05-3.32-14.4-6.15-22.02-8.45-4.49-1.36-9.09-2.53-13.76-3.51-11.91-2.53-24.36-3.85-37.1-3.85s-25.53,1.32-37.48,3.88c-4.64,.98-9.16,2.15-13.61,3.51-7.84,2.38-15.38,5.32-22.58,8.75-4.26,2-8.37,4.22-12.37,6.6-49.5,29.22-80.72,84.45-80.72,152.02,0,101.23,70.13,174.72,166.76,174.72s166.12-73.48,166.12-174.72c0-48.86-16.4-93.24-46.22-124.95Zm-119.9-34.72c10.22,0,20.1,.87,29.56,2.6l-14.1,31.48-6.52,14.52-9.2,20.51-9.16-20.47-6.52-14.52-14.06-31.44c9.61-1.77,19.64-2.68,30.01-2.68Zm-41.28,5.17l13.84,30.88,6.3,14.1,14.7,32.76,6.18,13.84,6.18-13.8,14.74-32.88,6.3-14.1,13.87-30.92c10.82,2.79,21.04,6.71,30.58,11.69l-13.72,30.58-6.18,13.8-27.67,61.72-9.01,20.1c-1.77,4-5.01,7.05-9.09,8.6-1.89,.72-3.85,1.09-5.81,1.09-1.7,0-3.39-.26-4.98-.83-.23-.04-.41-.11-.6-.19l-1.09-.45c-.38-.15-.75-.34-1.09-.53-3.28-1.58-5.99-4.3-7.58-7.84l-8.94-19.91-27.64-61.72-6.18-13.8-13.65-30.46c9.54-4.98,19.72-8.9,30.54-11.73Zm102.36,62.21c4.6,3.36,8.86,7.2,12.86,11.46,18.63,19.98,28.88,48.71,28.88,80.84,0,65.57-42.27,111.41-102.82,111.41s-103.42-45.85-103.42-111.41c0-32.61,9.99-60.55,28.92-80.84,4-4.26,8.33-8.11,12.93-11.46l35.86,80.01c2.56,5.69,6.79,10.1,11.88,12.86,.79,.45,1.62,.87,2.45,1.24,.45,.19,.9,.38,1.36,.57,.6,.23,1.21,.41,1.81,.6,2.64,.87,5.35,1.28,8.11,1.28,3.36,0,6.67-.6,9.88-1.85,6.9-2.6,12.33-7.77,15.38-14.52l35.93-80.19Zm-61.08,251.93c-89.02,0-151.68-67.53-151.68-159.63,0-60.51,26.69-110.06,69.98-137.16l13.84,30.84c-31.56,21.75-50.64,59.68-50.64,106.32,0,73.67,48.49,126.49,118.5,126.49s117.9-52.82,117.9-126.49c0-46.64-19.12-84.57-50.52-106.36l13.87-30.95c43.25,27.07,69.79,76.69,69.79,137.31,0,92.11-62.02,159.63-151.04,159.63Z"/></svg>